<?xml version="1.0" standalone="no"?>
<!DOCTYPE svg PUBLIC "-//W3C//DTD SVG 20010904//EN"
 "http://www.w3.org/TR/2001/REC-SVG-20010904/DTD/svg10.dtd">
<svg version="1.0" xmlns="http://www.w3.org/2000/svg"
 width="512.000000pt" height="512.000000pt" viewBox="0 0 512.000000 512.000000"
 preserveAspectRatio="xMidYMid meet">
<metadata>
Created by potrace 1.14, written by Peter Selinger 2001-2017
</metadata>
<g transform="translate(0.000000,512.000000) scale(0.100000,-0.100000)"
fill="#000000" stroke="none">
<path d="M3267 5089 c-108 -55 -137 -59 -417 -53 -495 9 -479 10 -620 -12 -70
-10 -189 -52 -257 -90 -69 -38 -163 -127 -182 -170 -9 -22 -32 -39 -101 -72
-62 -30 -101 -56 -125 -85 -40 -46 -85 -135 -85 -166 0 -23 -14 -38 -76 -80
-74 -51 -142 -181 -161 -308 -10 -62 -10 -330 -1 -413 7 -56 22 -146 42 -255
3 -16 14 -65 25 -108 l18 -78 -28 -14 c-32 -17 -70 -65 -89 -112 -46 -118 70
-355 227 -463 16 -11 23 -29 28 -75 17 -157 34 -217 87 -291 73 -104 146 -189
278 -323 l86 -86 -1 -190 -1 -190 -70 -102 -69 -103 -180 0 c-99 -1 -193 -3
-210 -5 -102 -13 -124 -17 -160 -26 -142 -36 -253 -97 -346 -189 -121 -120
-172 -235 -196 -440 -6 -52 -10 -331 -5 -356 2 -12 14 -25 25 -28 74 -22 332
-74 452 -91 22 -4 67 -10 100 -15 33 -5 83 -12 110 -15 28 -3 64 -7 80 -10 17
-2 59 -7 95 -10 36 -3 81 -8 100 -10 19 -3 80 -8 135 -11 55 -3 120 -7 145 -9
71 -5 497 -19 585 -19 95 0 514 14 600 19 121 8 248 18 355 30 25 2 74 7 110
11 36 3 74 8 85 10 11 2 44 7 74 10 30 3 57 7 60 9 3 2 31 6 61 10 75 9 242
41 373 72 l107 25 2 66 c6 300 -14 447 -83 588 -106 218 -333 353 -634 380
-16 1 -110 3 -207 3 l-178 1 -67 101 -67 100 -1 197 -1 197 87 90 c188 192
307 348 323 420 18 82 24 119 31 185 4 42 11 59 28 70 133 90 232 259 232 396
0 62 -4 76 -30 114 -32 46 -74 77 -117 86 l-26 6 20 71 c70 253 97 451 93 667
-3 168 -7 195 -36 283 -26 78 -62 133 -99 152 -16 9 -30 17 -30 18 0 1 5 18
11 37 19 63 23 94 22 185 0 82 -3 97 -35 165 -38 81 -68 123 -157 215 -32 33
-64 72 -72 87 l-14 26 -58 -29z"/>
</g>
</svg>
